<?xml version="1.0" standalone="no"?>
<!DOCTYPE svg PUBLIC "-//W3C//DTD SVG 20010904//EN"
 "http://www.w3.org/TR/2001/REC-SVG-20010904/DTD/svg10.dtd">
<svg version="1.0" xmlns="http://www.w3.org/2000/svg"
 width="533.000000pt" height="524.000000pt" viewBox="0 0 533.000000 524.000000"
 preserveAspectRatio="xMidYMid meet">

<g transform="translate(0.000000,524.000000) scale(0.100000,-0.100000)"
fill="#000000" stroke="none">
<path d="M580 3030 l0 -300 45 0 45 0 0 260 0 260 180 0 c113 0 188 -4 204
-11 29 -14 51 -68 41 -101 -17 -56 -24 -58 -214 -58 l-175 0 44 -45 44 -45
136 0 c109 0 142 3 169 18 55 27 75 63 79 140 4 80 -15 125 -67 159 -33 22
-41 23 -282 23 l-249 0 0 -300z"/>
<path d="M1270 3290 l0 -40 300 0 300 0 0 40 0 40 -300 0 -300 0 0 -40z"/>
<path d="M2031 3312 c-49 -27 -71 -73 -71 -153 0 -52 5 -73 23 -100 41 -61 70
-69 265 -69 170 0 173 0 197 -25 32 -31 34 -96 5 -125 -19 -19 -33 -20 -255
-20 l-235 0 0 -46 0 -45 248 3 c274 3 289 7 328 72 23 39 25 148 4 190 -36 70
-88 85 -307 86 l-152 0 -21 28 c-17 21 -21 36 -17 66 10 71 9 71 277 74 l240
3 0 40 0 39 -248 0 c-220 0 -251 -2 -281 -18z"/>
<path d="M2945 3030 l-300 -300 65 0 65 0 192 192 193 193 0 -193 0 -192 40 0
c24 0 43 5 45 13 3 7 4 142 3 300 l-3 287 -300 -300z"/>
<path d="M3850 3178 c0 -84 -4 -170 -9 -191 -37 -157 -227 -220 -347 -114 -41
35 -74 95 -74 132 0 23 -3 25 -46 25 l-47 0 7 -42 c16 -101 82 -190 169 -229
64 -29 190 -32 249 -7 49 22 125 93 151 143 20 36 22 58 25 238 l4 197 -41 0
-41 0 0 -152z"/>
<path d="M4020 3290 l0 -40 300 0 300 0 0 40 0 40 -300 0 -300 0 0 -40z"/>
<path d="M1270 3035 l0 -45 300 0 300 0 0 45 0 45 -300 0 -300 0 0 -45z"/>
<path d="M4020 3035 l0 -45 300 0 300 0 0 45 0 45 -300 0 -300 0 0 -45z"/>
<path d="M1270 2775 l0 -45 300 0 300 0 0 45 0 45 -300 0 -300 0 0 -45z"/>
<path d="M4020 2775 l0 -45 300 0 300 0 0 45 0 45 -300 0 -300 0 0 -45z"/>
<path d="M590 2510 l0 -50 48 0 47 0 -3 50 -4 50 -44 0 -44 0 0 -50z"/>
<path d="M730 2420 l0 -140 51 0 50 0 -3 110 c-2 60 0 106 3 102 4 -4 21 -47
39 -95 19 -49 42 -94 54 -102 14 -10 47 -15 103 -15 l83 0 0 140 0 140 -50 0
-50 0 -1 -137 0 -138 -20 55 c-76 214 -81 220 -194 220 l-65 0 0 -140z"/>
<path d="M1150 2535 c0 -24 2 -25 70 -25 68 0 70 -1 70 -25 0 -23 3 -25 50
-25 47 0 50 2 50 25 0 24 2 25 70 25 68 0 70 1 70 25 l0 25 -190 0 -190 0 0
-25z"/>
<path d="M1570 2510 l0 -50 50 0 c47 0 50 2 50 25 l0 25 140 0 140 0 0 25 0
25 -190 0 -190 0 0 -50z"/>
<path d="M1990 2420 l0 -140 190 0 190 0 0 25 0 25 -140 0 -140 0 0 115 0 115
-50 0 -50 0 0 -140z"/>
<path d="M2410 2510 l0 -50 50 0 50 0 0 50 0 50 -50 0 -50 0 0 -50z"/>
<path d="M2610 2553 c-44 -16 -50 -33 -50 -134 0 -93 1 -98 26 -118 24 -19 40
-21 156 -21 178 0 198 12 198 118 l0 42 -100 0 -100 0 0 -25 c0 -23 3 -25 50
-25 49 0 50 -1 50 -30 l0 -30 -95 0 -95 0 0 90 0 90 145 0 145 0 0 25 0 25
-157 -1 c-87 0 -165 -3 -173 -6z"/>
<path d="M2980 2510 l0 -50 45 0 c41 0 45 2 45 25 l0 25 145 0 145 0 0 25 0
25 -190 0 -190 0 0 -50z"/>
<path d="M3400 2420 l0 -140 51 0 51 0 -4 110 c-1 60 0 106 3 102 4 -4 21 -47
39 -95 19 -49 42 -94 54 -102 14 -10 47 -15 103 -15 l83 0 0 140 0 140 -50 0
-50 0 0 -137 -1 -138 -46 123 c-53 143 -63 152 -168 152 l-65 0 0 -140z"/>
<path d="M3820 2535 c0 -24 2 -25 70 -25 68 0 70 -1 70 -25 0 -23 3 -25 50
-25 47 0 50 2 50 25 0 24 2 25 70 25 68 0 70 1 70 25 l0 25 -190 0 -190 0 0
-25z"/>
<path d="M4240 2510 l0 -50 50 0 c47 0 50 2 50 25 l0 25 140 0 140 0 0 25 0
25 -190 0 -190 0 0 -50z"/>
<path d="M590 2360 l0 -80 48 0 47 0 0 80 0 80 -47 0 -48 0 0 -80z"/>
<path d="M1290 2360 l0 -80 50 0 50 0 0 80 0 80 -50 0 -50 0 0 -80z"/>
<path d="M1570 2360 l0 -80 190 0 190 0 0 25 0 25 -140 0 -140 0 0 30 0 30
140 0 140 0 0 25 0 25 -190 0 -190 0 0 -80z"/>
<path d="M2410 2360 l0 -80 50 0 50 0 0 80 0 80 -50 0 -50 0 0 -80z"/>
<path d="M2980 2360 l0 -80 190 0 190 0 0 25 0 25 -145 0 -145 0 0 30 0 29
143 3 c139 3 142 4 145 26 l3 22 -190 0 -191 0 0 -80z"/>
<path d="M3960 2360 l0 -80 50 0 50 0 0 80 0 80 -50 0 -50 0 0 -80z"/>
<path d="M4240 2360 l0 -80 190 0 190 0 0 25 0 25 -140 0 -140 0 0 30 0 30
140 0 140 0 0 25 0 25 -190 0 -190 0 0 -80z"/>
</g>
</svg>
